<?xml version="1.0" encoding="utf-8"?>
<!-- Generator: Adobe Illustrator 28.3.0, SVG Export Plug-In . SVG Version: 6.00 Build 0)  -->
<svg version="1.1" id="Layer_1" xmlns="http://www.w3.org/2000/svg" xmlns:xlink="http://www.w3.org/1999/xlink" x="0px" y="0px"
	 viewBox="0 0 129.3 66.5" style="enable-background:new 0 0 129.3 66.5;" xml:space="preserve">
<style type="text/css">
	.st0{fill:#ffffff;}
</style>
<g>
	<path class="st0" d="M3.7,47.3l0,17.7c0,0.6-0.3,1-0.8,1.1l-1.9,0.3C0.3,66.5,0,66.3,0,65.7l0.1-42.3c0-0.6,0.3-1,0.8-1.1l5.7-1
		c7.8-1.4,9.2,2,9.2,8.2l0,5.8c0,6.2-1.5,10.1-9.3,11.4L3.7,47.3z M6.6,43.4c4.7-0.8,5.6-3.3,5.6-7.4l0-5.8c0-4-0.9-6.2-5.6-5.4
		l-3,0.5l0,18.6L6.6,43.4z"/>
	<path class="st0" d="M23,61.7c0,0.6-0.3,1-0.8,1.1L20.3,63c-0.6,0.1-0.9-0.1-0.9-0.8L19.5,20c0-0.6,0.3-1,0.8-1.1l1.9-0.3
		c0.6-0.1,0.9,0.2,0.9,0.8L23,61.7z"/>
	<path class="st0" d="M40.6,16.3c0-0.6,0.3-1,0.8-1.1l1.9-0.3c0.6-0.1,0.9,0.2,0.9,0.8l-0.1,42.3c0,0.6-0.3,1-0.8,1.1l-2.8,0.5
		c-0.6,0.1-0.9-0.1-1-0.7l-6.3-25l-1.8-8.1l-0.2,0l0.3,8.6l0,25.8c0,0.6-0.3,1-0.8,1.1l-1.9,0.3c-0.6,0.1-0.9-0.1-0.9-0.8l0.1-42.3
		c0-0.6,0.3-1,0.8-1.1l2.8-0.5c0.6-0.1,0.8,0.1,1,0.7l6.3,25l1.8,8.1l0.2,0l-0.3-8.6L40.6,16.3z"/>
	<path class="st0" d="M64.5,33.3c0.6-0.1,0.9,0.2,0.9,0.8l0,12.7c0,5.5-1.3,8.9-8.2,10.1c-6.9,1.2-8.2-1.7-8.2-7.3l0-27.3
		c0-5.5,1.3-8.9,8.2-10.1c6.9-1.2,8.2,1.8,8.2,7.3l0,5.1c0,0.6-0.3,1-0.8,1.1l-1.9,0.3c-0.6,0.1-0.9-0.1-0.9-0.8l0-5.1
		c0-3.4-0.7-5.2-4.6-4.5c-3.8,0.7-4.5,2.7-4.5,6.1l0,27.3c0,3.4,0.7,5.2,4.5,4.5c3.8-0.7,4.6-2.8,4.6-6.1l0-10.2l-4.1,0.7
		c-0.6,0.1-0.9-0.2-0.9-0.8l0-1.6c0-0.6,0.3-1,0.8-1.1L64.5,33.3z"/>
	<path class="st0" d="M71,54.2c-0.6,0.1-0.9-0.1-0.9-0.8l0.1-42.3c0-0.6,0.3-1,0.8-1.1l5.7-1c7.8-1.4,9.2,2,9.2,8.2l0,2.4
		c0,4.9-0.9,8.3-5.1,10.2l0,0.2c4.2,0.5,5.1,3.6,5.1,8.4l0,3.2c0,6.2-1.4,10.1-9.2,11.4L71,54.2z M76.7,49.8
		c4.7-0.8,5.6-3.3,5.6-7.4l0-4.5c0-4-0.8-6.2-5.6-5.4l-3,0.5l0,17.3L76.7,49.8z M76.7,29c4.7-0.8,5.6-3.3,5.6-7.4l0-3.8
		c0-4-0.9-6.2-5.6-5.4l-3,0.5l0,16.6L76.7,29z"/>
	<path class="st0" d="M107.1,12.1l0,27.3c0,5.5-1.3,8.9-8.2,10.1c-6.9,1.2-8.2-1.7-8.2-7.3l0-27.3c0-5.5,1.3-8.9,8.2-10.1
		C105.8,3.7,107.2,6.7,107.1,12.1z M94.4,14.4l0,27.3c0,3.4,0.7,5.2,4.5,4.5c3.8-0.7,4.6-2.8,4.6-6.1l0-27.3c0-3.4-0.7-5.2-4.6-4.5
		C95.1,9,94.4,11,94.4,14.4z"/>
	<path class="st0" d="M121.2,4.7l0,39.8c0,0.6-0.3,1-0.8,1.1l-1.9,0.3c-0.6,0.1-0.9-0.1-0.9-0.8l0-39.8l-7.2,1.3
		c-0.6,0.1-0.9-0.2-0.9-0.8l0-1.6c0-0.6,0.3-1,0.8-1.1l18-3.1c0.6-0.1,0.9,0.2,0.9,0.8l0,1.6c0,0.6-0.3,1-0.9,1.1L121.2,4.7z"/>
</g>
</svg>
